# xmcd CD database file
#
# Track frame offsets:
#	150
#	12526
#	23956
#	37948
#	51496
#	65201
#	78249
#	91661
#	105241
#	117897
#	131646
#	144082
#	158677
#	173159
#	187731
#	200804
#	213997
#	227793
#	242904
#
# Disc length: 3435 seconds
#
# Revision: 5
# Processed by: cddbd v1.5.2PL0 Copyright (c) Steve Scherf et al.
# Submitted via: CDex 1.51
#
DISCID=fb0d6913
DTITLE=Billie Holiday - Billy Holiday  [CD 01-10]
DYEAR=1900
DGENRE=Jazz
TTITLE0=Your Mother's Son-In-Law  
TTITLE1=Riffin' The Scotch  
TTITLE2=I Wished On The Moon  
TTITLE3=What A Little Moonlight Can Do  
TTITLE4=Miss Brown To You  
TTITLE5=A Sunbonnet Blue  
TTITLE6=What A Night, What A Moon, What A Girl  
TTITLE7=I'm Painting The Town Red  
TTITLE8=It's Too Hot For Words  
TTITLE9=Twenty-Four Hours A Day  
TTITLE10=Yankee Doodle Never Went To Town  
TTITLE11=Eeny Meeny Miney Moo  
TTITLE12=If You Were Mine  
TTITLE13=These 'n' That 'n' Those  
TTITLE14=You Let Me Down  
TTITLE15=Spreadin' Rhythm Around  
TTITLE16=Life Begins When You're In Love  
TTITLE17=It's Like Reaching For The Moon  
TTITLE18=These Foolish Things  
EXTD=Volume 1 of a 10-CD set.
EXTT0=
EXTT1=
EXTT2=
EXTT3=
EXTT4=
EXTT5=
EXTT6=
EXTT7=
EXTT8=
EXTT9=
EXTT10=
EXTT11=
EXTT12=
EXTT13=
EXTT14=
EXTT15=
EXTT16=
EXTT17=
EXTT18=
PLAYORDER=
